<svg width="32" height="28" viewBox="0 0 32 28" fill="none" xmlns="http://www.w3.org/2000/svg">
<path fill-rule="evenodd" clip-rule="evenodd" d="M11.1384 5.71999C8.4582 5.13248 7.06267 2.57851 8.02007 1.06032e-05L27.5828 4.1582C30.2839 4.73234 31.6944 7.29635 30.7332 9.88509L30.7333 9.8851L28.9929 14.5724L23.1706 13.3349L24.911 8.64754L16.2943 6.816L14.5539 11.5032L13.6224 11.3052L8.73163 10.2657L10.472 5.57835L11.1384 5.71999ZM4.53947 9.37472C3.57989 11.9591 4.98397 14.5188 7.67615 15.0987L6.99096 14.953L5.25055 19.6404L11.0728 20.8779L12.8132 16.1906L21.4304 18.0223L19.69 22.7096L25.5123 23.9471L27.2527 19.2598L27.2526 19.2598C27.5696 18.406 27.6286 17.555 27.4685 16.7771C28.1406 16.1761 28.676 15.4262 28.993 14.5725L24.1022 13.5329L4.53947 9.37472ZM4.20871 24.4762C1.50763 23.9021 0.0971834 21.3381 1.05838 18.7493L25.5119 23.9471C24.5507 26.5358 21.5818 28.169 18.8807 27.5948L4.20871 24.4762Z" fill="white"/>
</svg>
